<?xml version="1.0" standalone="no"?>
<!DOCTYPE svg PUBLIC "-//W3C//DTD SVG 20010904//EN"
 "http://www.w3.org/TR/2001/REC-SVG-20010904/DTD/svg10.dtd">
<svg version="1.0" xmlns="http://www.w3.org/2000/svg"
 width="128.000000pt" height="128.000000pt" viewBox="0 0 128.000000 128.000000"
 preserveAspectRatio="xMidYMid meet">
<metadata>
Created by potrace 1.11, written by Peter Selinger 2001-2013
</metadata>
<g transform="translate(0.000000,128.000000) scale(0.100000,-0.100000)"
fill="#000000" stroke="none">
<path d="M392 1150 c-134 -42 -248 -83 -253 -91 -5 -8 -9 -66 -9 -129 0 -332
98 -583 290 -744 25 -20 86 -57 137 -82 l92 -45 83 39 c238 112 373 309 423
616 19 114 20 326 3 348 -11 13 -494 170 -515 167 -5 -1 -118 -36 -251 -79z
m408 -330 c0 -51 -13 -67 -25 -30 -13 40 -33 50 -106 50 l-69 0 0 -71 0 -70
42 3 c32 2 45 8 54 26 21 42 24 36 24 -41 0 -45 -4 -77 -10 -77 -5 0 -10 9
-10 20 0 24 -28 40 -69 40 l-31 0 0 -64 c0 -83 12 -96 88 -96 58 0 102 19 102
44 0 7 7 21 15 32 13 17 14 14 15 -43 l0 -63 -175 0 c-160 0 -213 8 -151 24
31 8 36 29 36 173 0 127 -9 173 -35 173 -8 0 -15 5 -15 10 0 6 60 10 160 10
l160 0 0 -50z"/>
<path d="M94 925 c0 -49 1 -71 3 -48 2 23 2 64 0 90 -2 26 -3 8 -3 -42z"/>
<path d="M1203 920 c0 -47 2 -66 4 -42 2 23 2 61 0 85 -2 23 -4 4 -4 -43z"/>
<path d="M101 744 c0 -11 3 -14 6 -6 3 7 2 16 -1 19 -3 4 -6 -2 -5 -13z"/>
<path d="M1191 744 c0 -11 3 -14 6 -6 3 7 2 16 -1 19 -3 4 -6 -2 -5 -13z"/>
<path d="M954 208 l-19 -23 23 19 c21 18 27 26 19 26 -2 0 -12 -10 -23 -22z"/>
<path d="M330 216 c0 -2 8 -10 18 -17 15 -13 16 -12 3 4 -13 16 -21 21 -21 13z"/>
<path d="M633 33 c9 -2 25 -2 35 0 9 3 1 5 -18 5 -19 0 -27 -2 -17 -5z"/>
</g>
</svg>
